<svg
    width="64"
    height="64"
    viewBox="0 0 24 24"
    fill="none"
    xmlns="http://www.w3.org/2000/svg">
  <rect width="24" height="24" rx="12" fill="#f3f4f6"/>
  <path
      d="M12 4V5M15.5 6.5L14.5 7.5M16 10H15M8.5 6.5L9.5 7.5M8 10H9M12 17V18M7 10C7 9.44772 7.44772 9 8 9H9M15 9H16C16.5523 9 17 9.44772 17 10V14C17 14.5523 16.5523 15 16 15H15M9 15H8C7.44772 15 7 14.5523 7 14V10M9 9V15M15 9V15M12 15C10.3431 15 9 13.6569 9 12C9 10.3431 10.3431 9 12 9C13.6569 9 15 10.3431 15 12C15 13.6569 13.6569 15 12 15Z"
      stroke="#4a5568"
      stroke-width="2"
      stroke-linecap="round"
      stroke-linejoin="round"/>
  <circle cx="16" cy="16" r="3" fill="#4299e1"/>
  <circle cx="20" cy="20" r="3" fill="#38b2ac"/>
  <circle cx="16" cy="20" r="1.5" fill="#e53e3e"/>
  <circle cx="20" cy="16" r="1.5" fill="#ed8936"/>
</svg>
